<mxfile host="Electron" agent="Mozilla/5.0 (Windows NT 10.0; Win64; x64) AppleWebKit/537.36 (KHTML, like Gecko) draw.io/26.0.4 Chrome/128.0.6613.186 Electron/32.2.5 Safari/537.36" version="26.0.4">
  <diagram name="Pagina-1" id="QIjNyVpAXmjipNSF-c7B">
    <mxGraphModel dx="574" dy="334" grid="1" gridSize="10" guides="1" tooltips="1" connect="1" arrows="1" fold="1" page="1" pageScale="1" pageWidth="827" pageHeight="1169" math="0" shadow="0">
      <root>
        <mxCell id="0" />
        <mxCell id="1" parent="0" />
        <mxCell id="kTHPznHqrY21SwvlboAM-73" style="edgeStyle=elbowEdgeStyle;shape=connector;rounded=0;orthogonalLoop=1;jettySize=auto;html=1;exitX=1;exitY=0.5;exitDx=0;exitDy=0;strokeColor=default;align=center;verticalAlign=middle;fontFamily=Helvetica;fontSize=11;fontColor=default;labelBackgroundColor=default;startArrow=none;startFill=0;endArrow=oval;endFill=1;" parent="1" source="kTHPznHqrY21SwvlboAM-1" edge="1">
          <mxGeometry relative="1" as="geometry">
            <mxPoint x="200" y="390" as="targetPoint" />
          </mxGeometry>
        </mxCell>
        <mxCell id="kTHPznHqrY21SwvlboAM-74" style="edgeStyle=elbowEdgeStyle;shape=connector;rounded=0;orthogonalLoop=1;jettySize=auto;html=1;exitX=1;exitY=0.5;exitDx=0;exitDy=0;strokeColor=default;align=center;verticalAlign=middle;fontFamily=Helvetica;fontSize=11;fontColor=default;labelBackgroundColor=default;startArrow=none;startFill=0;endArrow=oval;endFill=0;" parent="1" source="kTHPznHqrY21SwvlboAM-1" edge="1">
          <mxGeometry relative="1" as="geometry">
            <mxPoint x="200" y="410" as="targetPoint" />
          </mxGeometry>
        </mxCell>
        <mxCell id="kTHPznHqrY21SwvlboAM-75" style="edgeStyle=elbowEdgeStyle;shape=connector;rounded=0;orthogonalLoop=1;jettySize=auto;html=1;exitX=1;exitY=0.5;exitDx=0;exitDy=0;strokeColor=default;align=center;verticalAlign=middle;fontFamily=Helvetica;fontSize=11;fontColor=default;labelBackgroundColor=default;startArrow=none;startFill=0;endArrow=oval;endFill=0;" parent="1" source="kTHPznHqrY21SwvlboAM-1" edge="1">
          <mxGeometry relative="1" as="geometry">
            <mxPoint x="200" y="430" as="targetPoint" />
          </mxGeometry>
        </mxCell>
        <mxCell id="kTHPznHqrY21SwvlboAM-76" style="edgeStyle=elbowEdgeStyle;shape=connector;rounded=0;orthogonalLoop=1;jettySize=auto;html=1;exitX=1;exitY=0.5;exitDx=0;exitDy=0;strokeColor=default;align=center;verticalAlign=middle;fontFamily=Helvetica;fontSize=11;fontColor=default;labelBackgroundColor=default;startArrow=none;startFill=0;endArrow=oval;endFill=0;" parent="1" source="kTHPznHqrY21SwvlboAM-1" edge="1">
          <mxGeometry relative="1" as="geometry">
            <mxPoint x="200" y="450" as="targetPoint" />
          </mxGeometry>
        </mxCell>
        <mxCell id="kTHPznHqrY21SwvlboAM-86" style="edgeStyle=elbowEdgeStyle;shape=connector;rounded=0;orthogonalLoop=1;jettySize=auto;html=1;exitX=1;exitY=0.5;exitDx=0;exitDy=0;strokeColor=default;align=center;verticalAlign=middle;fontFamily=Helvetica;fontSize=11;fontColor=default;labelBackgroundColor=default;startArrow=none;startFill=0;endArrow=oval;endFill=0;" parent="1" source="kTHPznHqrY21SwvlboAM-1" edge="1">
          <mxGeometry relative="1" as="geometry">
            <mxPoint x="200" y="470" as="targetPoint" />
          </mxGeometry>
        </mxCell>
        <mxCell id="kTHPznHqrY21SwvlboAM-143" style="edgeStyle=elbowEdgeStyle;shape=connector;rounded=0;orthogonalLoop=1;jettySize=auto;html=1;exitX=1;exitY=0.5;exitDx=0;exitDy=0;strokeColor=default;align=center;verticalAlign=middle;fontFamily=Helvetica;fontSize=11;fontColor=default;labelBackgroundColor=default;startArrow=none;startFill=0;endArrow=oval;endFill=0;" parent="1" source="kTHPznHqrY21SwvlboAM-1" edge="1">
          <mxGeometry relative="1" as="geometry">
            <mxPoint x="200" y="490" as="targetPoint" />
          </mxGeometry>
        </mxCell>
        <mxCell id="VcE4QbQk5p8lFnNBb0S_-13" style="edgeStyle=elbowEdgeStyle;rounded=0;orthogonalLoop=1;jettySize=auto;html=1;exitX=0.5;exitY=1;exitDx=0;exitDy=0;endArrow=none;endFill=0;entryX=0;entryY=0.5;entryDx=0;entryDy=0;" edge="1" parent="1" source="kTHPznHqrY21SwvlboAM-1" target="VcE4QbQk5p8lFnNBb0S_-12">
          <mxGeometry relative="1" as="geometry">
            <Array as="points">
              <mxPoint x="120" y="530" />
            </Array>
          </mxGeometry>
        </mxCell>
        <mxCell id="VcE4QbQk5p8lFnNBb0S_-14" style="edgeStyle=orthogonalEdgeStyle;rounded=0;orthogonalLoop=1;jettySize=auto;html=1;exitX=0;exitY=0.5;exitDx=0;exitDy=0;entryX=0;entryY=0.5;entryDx=0;entryDy=0;endArrow=none;endFill=0;" edge="1" parent="1" source="kTHPznHqrY21SwvlboAM-1" target="kTHPznHqrY21SwvlboAM-7">
          <mxGeometry relative="1" as="geometry">
            <Array as="points">
              <mxPoint x="40" y="460" />
              <mxPoint x="40" y="790" />
            </Array>
          </mxGeometry>
        </mxCell>
        <mxCell id="kTHPznHqrY21SwvlboAM-1" value="Atleta" style="rounded=0;whiteSpace=wrap;html=1;fillColor=#dae8fc;strokeColor=#6c8ebf;" parent="1" vertex="1">
          <mxGeometry x="84" y="440" width="80" height="40" as="geometry" />
        </mxCell>
        <mxCell id="kTHPznHqrY21SwvlboAM-119" style="edgeStyle=orthogonalEdgeStyle;shape=connector;rounded=0;orthogonalLoop=1;jettySize=auto;html=1;exitX=0.5;exitY=0;exitDx=0;exitDy=0;strokeColor=default;align=center;verticalAlign=middle;fontFamily=Helvetica;fontSize=11;fontColor=default;labelBackgroundColor=default;startArrow=none;startFill=0;endArrow=oval;endFill=0;" parent="1" source="kTHPznHqrY21SwvlboAM-2" edge="1">
          <mxGeometry relative="1" as="geometry">
            <mxPoint x="460" y="140" as="targetPoint" />
          </mxGeometry>
        </mxCell>
        <mxCell id="kTHPznHqrY21SwvlboAM-145" style="edgeStyle=elbowEdgeStyle;shape=connector;rounded=0;orthogonalLoop=1;jettySize=auto;html=1;exitX=0.5;exitY=0;exitDx=0;exitDy=0;strokeColor=default;align=center;verticalAlign=middle;fontFamily=Helvetica;fontSize=11;fontColor=default;labelBackgroundColor=default;startArrow=none;startFill=0;endArrow=oval;endFill=0;elbow=vertical;" parent="1" source="kTHPznHqrY21SwvlboAM-2" edge="1">
          <mxGeometry relative="1" as="geometry">
            <mxPoint x="520" y="140" as="targetPoint" />
          </mxGeometry>
        </mxCell>
        <mxCell id="kTHPznHqrY21SwvlboAM-2" value="Allenatore" style="rounded=0;whiteSpace=wrap;html=1;fillColor=#dae8fc;strokeColor=#6c8ebf;" parent="1" vertex="1">
          <mxGeometry x="364" y="180" width="80" height="40" as="geometry" />
        </mxCell>
        <mxCell id="kTHPznHqrY21SwvlboAM-55" style="edgeStyle=orthogonalEdgeStyle;shape=connector;rounded=0;orthogonalLoop=1;jettySize=auto;html=1;exitX=0.5;exitY=1;exitDx=0;exitDy=0;entryX=0.5;entryY=0;entryDx=0;entryDy=0;strokeColor=default;align=center;verticalAlign=middle;fontFamily=Helvetica;fontSize=11;fontColor=default;labelBackgroundColor=default;startArrow=none;startFill=0;endArrow=none;endFill=0;" parent="1" source="kTHPznHqrY21SwvlboAM-3" target="kTHPznHqrY21SwvlboAM-9" edge="1">
          <mxGeometry relative="1" as="geometry" />
        </mxCell>
        <mxCell id="kTHPznHqrY21SwvlboAM-135" style="edgeStyle=orthogonalEdgeStyle;shape=connector;rounded=0;orthogonalLoop=1;jettySize=auto;html=1;exitX=0.5;exitY=0;exitDx=0;exitDy=0;strokeColor=default;align=center;verticalAlign=middle;fontFamily=Helvetica;fontSize=11;fontColor=default;labelBackgroundColor=default;startArrow=none;startFill=0;endArrow=oval;endFill=0;" parent="1" source="kTHPznHqrY21SwvlboAM-3" edge="1">
          <mxGeometry relative="1" as="geometry">
            <mxPoint x="710" y="570" as="targetPoint" />
          </mxGeometry>
        </mxCell>
        <mxCell id="kTHPznHqrY21SwvlboAM-136" style="edgeStyle=orthogonalEdgeStyle;shape=connector;rounded=0;orthogonalLoop=1;jettySize=auto;html=1;exitX=0.5;exitY=0;exitDx=0;exitDy=0;strokeColor=default;align=center;verticalAlign=middle;fontFamily=Helvetica;fontSize=11;fontColor=default;labelBackgroundColor=default;startArrow=none;startFill=0;endArrow=oval;endFill=1;" parent="1" source="kTHPznHqrY21SwvlboAM-3" edge="1">
          <mxGeometry relative="1" as="geometry">
            <mxPoint x="610" y="570" as="targetPoint" />
            <Array as="points">
              <mxPoint x="680" y="585" />
              <mxPoint x="610" y="585" />
            </Array>
          </mxGeometry>
        </mxCell>
        <mxCell id="kTHPznHqrY21SwvlboAM-137" style="edgeStyle=orthogonalEdgeStyle;shape=connector;rounded=0;orthogonalLoop=1;jettySize=auto;html=1;exitX=0.5;exitY=0;exitDx=0;exitDy=0;strokeColor=default;align=center;verticalAlign=middle;fontFamily=Helvetica;fontSize=11;fontColor=default;labelBackgroundColor=default;startArrow=none;startFill=0;endArrow=oval;endFill=0;" parent="1" source="kTHPznHqrY21SwvlboAM-3" edge="1">
          <mxGeometry relative="1" as="geometry">
            <mxPoint x="740" y="570" as="targetPoint" />
            <Array as="points">
              <mxPoint x="680" y="585" />
              <mxPoint x="740" y="585" />
            </Array>
          </mxGeometry>
        </mxCell>
        <mxCell id="kTHPznHqrY21SwvlboAM-139" style="edgeStyle=orthogonalEdgeStyle;shape=connector;rounded=0;orthogonalLoop=1;jettySize=auto;html=1;exitX=0.5;exitY=0;exitDx=0;exitDy=0;strokeColor=default;align=center;verticalAlign=middle;fontFamily=Helvetica;fontSize=11;fontColor=default;labelBackgroundColor=default;startArrow=none;startFill=0;endArrow=oval;endFill=0;" parent="1" source="kTHPznHqrY21SwvlboAM-3" edge="1">
          <mxGeometry relative="1" as="geometry">
            <mxPoint x="650" y="569.9999999999999" as="targetPoint" />
          </mxGeometry>
        </mxCell>
        <mxCell id="kTHPznHqrY21SwvlboAM-3" value="Medico" style="rounded=0;whiteSpace=wrap;html=1;fillColor=#dae8fc;strokeColor=#6c8ebf;" parent="1" vertex="1">
          <mxGeometry x="640" y="605" width="80" height="40" as="geometry" />
        </mxCell>
        <mxCell id="VcE4QbQk5p8lFnNBb0S_-33" style="edgeStyle=elbowEdgeStyle;shape=connector;rounded=0;orthogonalLoop=1;jettySize=auto;html=1;exitX=1;exitY=0.5;exitDx=0;exitDy=0;strokeColor=default;align=center;verticalAlign=middle;fontFamily=Helvetica;fontSize=11;fontColor=default;labelBackgroundColor=default;endArrow=oval;endFill=0;" edge="1" parent="1" source="kTHPznHqrY21SwvlboAM-4">
          <mxGeometry relative="1" as="geometry">
            <mxPoint x="320" y="280" as="targetPoint" />
          </mxGeometry>
        </mxCell>
        <mxCell id="VcE4QbQk5p8lFnNBb0S_-34" style="edgeStyle=orthogonalEdgeStyle;shape=connector;rounded=0;orthogonalLoop=1;jettySize=auto;html=1;exitX=1;exitY=0.5;exitDx=0;exitDy=0;strokeColor=default;align=center;verticalAlign=middle;fontFamily=Helvetica;fontSize=11;fontColor=default;labelBackgroundColor=default;endArrow=oval;endFill=0;" edge="1" parent="1" source="kTHPznHqrY21SwvlboAM-4">
          <mxGeometry relative="1" as="geometry">
            <mxPoint x="320" y="330" as="targetPoint" />
          </mxGeometry>
        </mxCell>
        <mxCell id="kTHPznHqrY21SwvlboAM-4" value="allenare" style="rhombus;whiteSpace=wrap;html=1;fillColor=#fff2cc;strokeColor=#d6b656;" parent="1" vertex="1">
          <mxGeometry x="200" y="260" width="80" height="80" as="geometry" />
        </mxCell>
        <mxCell id="kTHPznHqrY21SwvlboAM-7" value="possedere" style="rhombus;whiteSpace=wrap;html=1;fillColor=#fff2cc;strokeColor=#d6b656;" parent="1" vertex="1">
          <mxGeometry x="50" y="750" width="80" height="80" as="geometry" />
        </mxCell>
        <mxCell id="kTHPznHqrY21SwvlboAM-9" value="rilasciare" style="rhombus;whiteSpace=wrap;html=1;fillColor=#fff2cc;strokeColor=#d6b656;" parent="1" vertex="1">
          <mxGeometry x="670" y="720" width="80" height="80" as="geometry" />
        </mxCell>
        <mxCell id="kTHPznHqrY21SwvlboAM-115" style="edgeStyle=elbowEdgeStyle;shape=connector;rounded=0;orthogonalLoop=1;jettySize=auto;html=1;exitX=0;exitY=0.5;exitDx=0;exitDy=0;strokeColor=default;align=center;verticalAlign=middle;fontFamily=Helvetica;fontSize=11;fontColor=default;labelBackgroundColor=default;startArrow=none;startFill=0;endArrow=oval;endFill=1;" parent="1" source="kTHPznHqrY21SwvlboAM-10" edge="1">
          <mxGeometry relative="1" as="geometry">
            <mxPoint x="600" y="390" as="targetPoint" />
          </mxGeometry>
        </mxCell>
        <mxCell id="kTHPznHqrY21SwvlboAM-116" style="edgeStyle=elbowEdgeStyle;shape=connector;rounded=0;orthogonalLoop=1;jettySize=auto;html=1;exitX=0;exitY=0.5;exitDx=0;exitDy=0;strokeColor=default;align=center;verticalAlign=middle;fontFamily=Helvetica;fontSize=11;fontColor=default;labelBackgroundColor=default;startArrow=none;startFill=0;endArrow=oval;endFill=0;" parent="1" source="kTHPznHqrY21SwvlboAM-10" edge="1">
          <mxGeometry relative="1" as="geometry">
            <mxPoint x="600" y="419.9565217391305" as="targetPoint" />
          </mxGeometry>
        </mxCell>
        <mxCell id="VcE4QbQk5p8lFnNBb0S_-7" style="edgeStyle=elbowEdgeStyle;rounded=0;orthogonalLoop=1;jettySize=auto;html=1;exitX=0;exitY=0.5;exitDx=0;exitDy=0;endArrow=oval;endFill=0;" edge="1" parent="1" source="kTHPznHqrY21SwvlboAM-10">
          <mxGeometry relative="1" as="geometry">
            <mxPoint x="600" y="450" as="targetPoint" />
            <Array as="points">
              <mxPoint x="620" y="430" />
            </Array>
          </mxGeometry>
        </mxCell>
        <mxCell id="kTHPznHqrY21SwvlboAM-10" value="Compenso" style="rounded=0;whiteSpace=wrap;html=1;fillColor=#dae8fc;strokeColor=#6c8ebf;" parent="1" vertex="1">
          <mxGeometry x="640" y="400" width="80" height="40" as="geometry" />
        </mxCell>
        <mxCell id="kTHPznHqrY21SwvlboAM-11" value="percepire" style="rhombus;whiteSpace=wrap;html=1;fillColor=#fff2cc;strokeColor=#d6b656;" parent="1" vertex="1">
          <mxGeometry x="520" y="260" width="80" height="80" as="geometry" />
        </mxCell>
        <mxCell id="kTHPznHqrY21SwvlboAM-41" value="&lt;font style=&quot;font-size: 8px;&quot;&gt;cognome&lt;/font&gt;" style="text;html=1;align=center;verticalAlign=middle;whiteSpace=wrap;rounded=0;fontFamily=Helvetica;fontSize=11;fontColor=default;labelBackgroundColor=default;" parent="1" vertex="1">
          <mxGeometry x="444" y="120" width="40" height="10" as="geometry" />
        </mxCell>
        <mxCell id="kTHPznHqrY21SwvlboAM-15" style="edgeStyle=orthogonalEdgeStyle;rounded=0;orthogonalLoop=1;jettySize=auto;html=1;exitX=1;exitY=0.5;exitDx=0;exitDy=0;endArrow=none;endFill=0;" parent="1" source="kTHPznHqrY21SwvlboAM-2" target="kTHPznHqrY21SwvlboAM-11" edge="1">
          <mxGeometry relative="1" as="geometry" />
        </mxCell>
        <mxCell id="kTHPznHqrY21SwvlboAM-16" style="edgeStyle=orthogonalEdgeStyle;rounded=0;orthogonalLoop=1;jettySize=auto;html=1;exitX=0;exitY=0.5;exitDx=0;exitDy=0;entryX=0.5;entryY=0;entryDx=0;entryDy=0;endArrow=none;endFill=0;" parent="1" source="kTHPznHqrY21SwvlboAM-2" target="kTHPznHqrY21SwvlboAM-4" edge="1">
          <mxGeometry relative="1" as="geometry" />
        </mxCell>
        <mxCell id="kTHPznHqrY21SwvlboAM-25" style="rounded=0;orthogonalLoop=1;jettySize=auto;html=1;exitX=0.5;exitY=0;exitDx=0;exitDy=0;startArrow=none;startFill=0;endArrow=oval;endFill=1;edgeStyle=orthogonalEdgeStyle;" parent="1" source="kTHPznHqrY21SwvlboAM-2" edge="1">
          <mxGeometry relative="1" as="geometry">
            <mxPoint x="340" y="140" as="targetPoint" />
            <Array as="points">
              <mxPoint x="404" y="160" />
              <mxPoint x="340" y="160" />
            </Array>
          </mxGeometry>
        </mxCell>
        <mxCell id="kTHPznHqrY21SwvlboAM-27" style="edgeStyle=orthogonalEdgeStyle;shape=connector;rounded=0;orthogonalLoop=1;jettySize=auto;html=1;exitX=0.5;exitY=0;exitDx=0;exitDy=0;strokeColor=default;align=center;verticalAlign=middle;fontFamily=Helvetica;fontSize=11;fontColor=default;labelBackgroundColor=default;startArrow=none;startFill=0;endArrow=oval;endFill=0;" parent="1" source="kTHPznHqrY21SwvlboAM-2" edge="1">
          <mxGeometry relative="1" as="geometry">
            <mxPoint x="404" y="140" as="targetPoint" />
          </mxGeometry>
        </mxCell>
        <mxCell id="kTHPznHqrY21SwvlboAM-17" style="edgeStyle=orthogonalEdgeStyle;rounded=0;orthogonalLoop=1;jettySize=auto;html=1;exitX=0;exitY=0.5;exitDx=0;exitDy=0;entryX=0.5;entryY=0;entryDx=0;entryDy=0;endArrow=none;endFill=0;" parent="1" source="kTHPznHqrY21SwvlboAM-4" target="kTHPznHqrY21SwvlboAM-1" edge="1">
          <mxGeometry relative="1" as="geometry" />
        </mxCell>
        <mxCell id="VcE4QbQk5p8lFnNBb0S_-1" style="edgeStyle=orthogonalEdgeStyle;rounded=0;orthogonalLoop=1;jettySize=auto;html=1;exitX=0.5;exitY=1;exitDx=0;exitDy=0;endArrow=oval;endFill=1;" edge="1" parent="1" source="kTHPznHqrY21SwvlboAM-5">
          <mxGeometry relative="1" as="geometry">
            <mxPoint x="360" y="1040" as="targetPoint" />
          </mxGeometry>
        </mxCell>
        <mxCell id="VcE4QbQk5p8lFnNBb0S_-5" style="edgeStyle=orthogonalEdgeStyle;rounded=0;orthogonalLoop=1;jettySize=auto;html=1;exitX=0.5;exitY=1;exitDx=0;exitDy=0;endArrow=oval;endFill=0;" edge="1" parent="1" source="kTHPznHqrY21SwvlboAM-5">
          <mxGeometry relative="1" as="geometry">
            <mxPoint x="450" y="1040" as="targetPoint" />
          </mxGeometry>
        </mxCell>
        <mxCell id="VcE4QbQk5p8lFnNBb0S_-9" style="edgeStyle=orthogonalEdgeStyle;rounded=0;orthogonalLoop=1;jettySize=auto;html=1;exitX=0.5;exitY=1;exitDx=0;exitDy=0;endArrow=oval;endFill=0;" edge="1" parent="1" source="kTHPznHqrY21SwvlboAM-5">
          <mxGeometry relative="1" as="geometry">
            <mxPoint x="520" y="1040" as="targetPoint" />
          </mxGeometry>
        </mxCell>
        <mxCell id="kTHPznHqrY21SwvlboAM-5" value="Certificazione&lt;div&gt;Sanitaria&lt;/div&gt;" style="rounded=0;whiteSpace=wrap;html=1;fillColor=#dae8fc;strokeColor=#6c8ebf;" parent="1" vertex="1">
          <mxGeometry x="364" y="960" width="80" height="40" as="geometry" />
        </mxCell>
        <mxCell id="kTHPznHqrY21SwvlboAM-20" style="edgeStyle=orthogonalEdgeStyle;rounded=0;orthogonalLoop=1;jettySize=auto;html=1;exitX=0.5;exitY=1;exitDx=0;exitDy=0;entryX=0;entryY=0.5;entryDx=0;entryDy=0;endArrow=none;endFill=0;" parent="1" source="kTHPznHqrY21SwvlboAM-7" target="kTHPznHqrY21SwvlboAM-5" edge="1">
          <mxGeometry relative="1" as="geometry" />
        </mxCell>
        <mxCell id="kTHPznHqrY21SwvlboAM-22" style="edgeStyle=orthogonalEdgeStyle;rounded=0;orthogonalLoop=1;jettySize=auto;html=1;exitX=0.5;exitY=1;exitDx=0;exitDy=0;entryX=1;entryY=0.5;entryDx=0;entryDy=0;endArrow=none;endFill=0;" parent="1" source="kTHPznHqrY21SwvlboAM-9" target="kTHPznHqrY21SwvlboAM-5" edge="1">
          <mxGeometry relative="1" as="geometry" />
        </mxCell>
        <mxCell id="kTHPznHqrY21SwvlboAM-18" style="edgeStyle=orthogonalEdgeStyle;rounded=0;orthogonalLoop=1;jettySize=auto;html=1;exitX=1;exitY=0.5;exitDx=0;exitDy=0;entryX=0.5;entryY=0;entryDx=0;entryDy=0;endArrow=none;endFill=0;" parent="1" source="kTHPznHqrY21SwvlboAM-11" target="kTHPznHqrY21SwvlboAM-10" edge="1">
          <mxGeometry relative="1" as="geometry" />
        </mxCell>
        <mxCell id="kTHPznHqrY21SwvlboAM-39" value="&lt;font style=&quot;font-size: 8px;&quot;&gt;cod_fiscale&lt;/font&gt;" style="text;html=1;align=center;verticalAlign=middle;whiteSpace=wrap;rounded=0;fontFamily=Helvetica;fontSize=11;fontColor=default;labelBackgroundColor=default;" parent="1" vertex="1">
          <mxGeometry x="500" y="120" width="40" height="10" as="geometry" />
        </mxCell>
        <mxCell id="kTHPznHqrY21SwvlboAM-40" value="&lt;font style=&quot;font-size: 8px;&quot;&gt;nome&lt;/font&gt;" style="text;html=1;align=center;verticalAlign=middle;whiteSpace=wrap;rounded=0;fontFamily=Helvetica;fontSize=11;fontColor=default;labelBackgroundColor=default;" parent="1" vertex="1">
          <mxGeometry x="384" y="120" width="40" height="10" as="geometry" />
        </mxCell>
        <mxCell id="kTHPznHqrY21SwvlboAM-78" value="&lt;font style=&quot;font-size: 8px;&quot;&gt;cod_fiscale&lt;/font&gt;" style="text;html=1;align=left;verticalAlign=middle;whiteSpace=wrap;rounded=0;fontFamily=Helvetica;fontSize=11;fontColor=default;labelBackgroundColor=default;" parent="1" vertex="1">
          <mxGeometry x="210" y="480" width="50" height="10" as="geometry" />
        </mxCell>
        <mxCell id="kTHPznHqrY21SwvlboAM-81" value="&lt;font style=&quot;font-size: 8px;&quot;&gt;nome&lt;/font&gt;" style="text;html=1;align=left;verticalAlign=middle;whiteSpace=wrap;rounded=0;fontFamily=Helvetica;fontSize=11;fontColor=default;labelBackgroundColor=default;" parent="1" vertex="1">
          <mxGeometry x="210" y="400" width="40" height="10" as="geometry" />
        </mxCell>
        <mxCell id="kTHPznHqrY21SwvlboAM-82" value="&lt;font style=&quot;font-size: 8px;&quot;&gt;cognome&lt;/font&gt;" style="text;html=1;align=left;verticalAlign=middle;whiteSpace=wrap;rounded=0;fontFamily=Helvetica;fontSize=11;fontColor=default;labelBackgroundColor=default;" parent="1" vertex="1">
          <mxGeometry x="210" y="420" width="40" height="10" as="geometry" />
        </mxCell>
        <mxCell id="kTHPznHqrY21SwvlboAM-85" value="&lt;font style=&quot;font-size: 8px;&quot;&gt;data_nascita&lt;/font&gt;" style="text;html=1;align=left;verticalAlign=middle;whiteSpace=wrap;rounded=0;fontFamily=Helvetica;fontSize=11;fontColor=default;labelBackgroundColor=default;" parent="1" vertex="1">
          <mxGeometry x="210" y="440" width="50" height="10" as="geometry" />
        </mxCell>
        <mxCell id="kTHPznHqrY21SwvlboAM-91" value="&lt;font style=&quot;font-size: 8px;&quot;&gt;luogo_nascita&lt;/font&gt;" style="text;html=1;align=left;verticalAlign=middle;whiteSpace=wrap;rounded=0;fontFamily=Helvetica;fontSize=11;fontColor=default;labelBackgroundColor=default;" parent="1" vertex="1">
          <mxGeometry x="210" y="460" width="40" height="10" as="geometry" />
        </mxCell>
        <mxCell id="kTHPznHqrY21SwvlboAM-94" value="&lt;span style=&quot;font-size: 8px;&quot;&gt;data_emissione&lt;/span&gt;" style="text;html=1;align=left;verticalAlign=middle;whiteSpace=wrap;rounded=0;fontFamily=Helvetica;fontSize=11;fontColor=default;labelBackgroundColor=default;" parent="1" vertex="1">
          <mxGeometry x="424" y="1050" width="66" height="10" as="geometry" />
        </mxCell>
        <mxCell id="kTHPznHqrY21SwvlboAM-120" value="&lt;font style=&quot;font-size: 8px;&quot;&gt;id_compenso&lt;/font&gt;" style="text;html=1;align=right;verticalAlign=middle;whiteSpace=wrap;rounded=0;fontFamily=Helvetica;fontSize=11;fontColor=default;labelBackgroundColor=default;" parent="1" vertex="1">
          <mxGeometry x="550" y="380" width="40" height="10" as="geometry" />
        </mxCell>
        <mxCell id="kTHPznHqrY21SwvlboAM-121" value="&lt;span style=&quot;font-size: 8px;&quot;&gt;data_erogazione&lt;/span&gt;" style="text;html=1;align=right;verticalAlign=middle;whiteSpace=wrap;rounded=0;fontFamily=Helvetica;fontSize=11;fontColor=default;labelBackgroundColor=default;" parent="1" vertex="1">
          <mxGeometry x="530" y="410" width="60" height="10" as="geometry" />
        </mxCell>
        <mxCell id="kTHPznHqrY21SwvlboAM-123" value="&lt;font style=&quot;font-size: 8px;&quot;&gt;cognome&lt;/font&gt;" style="text;html=1;align=center;verticalAlign=middle;whiteSpace=wrap;rounded=0;fontFamily=Helvetica;fontSize=11;fontColor=default;labelBackgroundColor=default;" parent="1" vertex="1">
          <mxGeometry x="730" y="550" width="40" height="10" as="geometry" />
        </mxCell>
        <mxCell id="kTHPznHqrY21SwvlboAM-126" value="&lt;font style=&quot;font-size: 8px;&quot;&gt;p_iva&lt;/font&gt;" style="text;html=1;align=center;verticalAlign=middle;whiteSpace=wrap;rounded=0;fontFamily=Helvetica;fontSize=11;fontColor=default;labelBackgroundColor=default;" parent="1" vertex="1">
          <mxGeometry x="630" y="550" width="40" height="10" as="geometry" />
        </mxCell>
        <mxCell id="kTHPznHqrY21SwvlboAM-127" value="&lt;font style=&quot;font-size: 8px;&quot;&gt;nome&lt;/font&gt;" style="text;html=1;align=center;verticalAlign=middle;whiteSpace=wrap;rounded=0;fontFamily=Helvetica;fontSize=11;fontColor=default;labelBackgroundColor=default;" parent="1" vertex="1">
          <mxGeometry x="690" y="550" width="40" height="10" as="geometry" />
        </mxCell>
        <mxCell id="kTHPznHqrY21SwvlboAM-144" value="&lt;font style=&quot;font-size: 8px;&quot;&gt;id_atleta&lt;/font&gt;" style="text;html=1;align=left;verticalAlign=middle;whiteSpace=wrap;rounded=0;fontFamily=Helvetica;fontSize=11;fontColor=default;labelBackgroundColor=default;" parent="1" vertex="1">
          <mxGeometry x="210" y="380" width="40" height="10" as="geometry" />
        </mxCell>
        <mxCell id="kTHPznHqrY21SwvlboAM-146" value="&lt;font style=&quot;font-size: 8px;&quot;&gt;id_allenatore&lt;/font&gt;" style="text;html=1;align=center;verticalAlign=middle;whiteSpace=wrap;rounded=0;fontFamily=Helvetica;fontSize=11;fontColor=default;labelBackgroundColor=default;" parent="1" vertex="1">
          <mxGeometry x="324" y="120" width="40" height="10" as="geometry" />
        </mxCell>
        <mxCell id="VcE4QbQk5p8lFnNBb0S_-2" value="&lt;font style=&quot;font-size: 8px;&quot;&gt;id_certificazione&lt;/font&gt;" style="text;html=1;align=left;verticalAlign=middle;whiteSpace=wrap;rounded=0;fontFamily=Helvetica;fontSize=11;fontColor=default;labelBackgroundColor=default;" vertex="1" parent="1">
          <mxGeometry x="330" y="1050" width="60" height="10" as="geometry" />
        </mxCell>
        <mxCell id="VcE4QbQk5p8lFnNBb0S_-6" value="&lt;font style=&quot;font-size: 8px;&quot;&gt;id_medico&lt;/font&gt;" style="text;html=1;align=center;verticalAlign=middle;whiteSpace=wrap;rounded=0;fontFamily=Helvetica;fontSize=11;fontColor=default;labelBackgroundColor=default;" vertex="1" parent="1">
          <mxGeometry x="590" y="550" width="40" height="10" as="geometry" />
        </mxCell>
        <mxCell id="VcE4QbQk5p8lFnNBb0S_-8" value="&lt;span style=&quot;font-size: 8px;&quot;&gt;importo&lt;/span&gt;" style="text;html=1;align=right;verticalAlign=middle;whiteSpace=wrap;rounded=0;fontFamily=Helvetica;fontSize=11;fontColor=default;labelBackgroundColor=default;" vertex="1" parent="1">
          <mxGeometry x="530" y="440" width="60" height="10" as="geometry" />
        </mxCell>
        <mxCell id="VcE4QbQk5p8lFnNBb0S_-10" value="&lt;span style=&quot;font-size: 8px;&quot;&gt;data_scadenza&lt;/span&gt;" style="text;html=1;align=left;verticalAlign=middle;whiteSpace=wrap;rounded=0;fontFamily=Helvetica;fontSize=11;fontColor=default;labelBackgroundColor=default;" vertex="1" parent="1">
          <mxGeometry x="500" y="1050" width="66" height="10" as="geometry" />
        </mxCell>
        <mxCell id="VcE4QbQk5p8lFnNBb0S_-16" style="edgeStyle=elbowEdgeStyle;rounded=0;orthogonalLoop=1;jettySize=auto;html=1;exitX=0.5;exitY=1;exitDx=0;exitDy=0;elbow=vertical;endArrow=oval;endFill=1;" edge="1" parent="1" source="VcE4QbQk5p8lFnNBb0S_-11">
          <mxGeometry relative="1" as="geometry">
            <mxPoint x="340" y="730" as="targetPoint" />
          </mxGeometry>
        </mxCell>
        <mxCell id="VcE4QbQk5p8lFnNBb0S_-17" style="edgeStyle=orthogonalEdgeStyle;rounded=0;orthogonalLoop=1;jettySize=auto;html=1;exitX=0.5;exitY=1;exitDx=0;exitDy=0;endArrow=oval;endFill=0;" edge="1" parent="1" source="VcE4QbQk5p8lFnNBb0S_-11">
          <mxGeometry relative="1" as="geometry">
            <mxPoint x="404" y="730" as="targetPoint" />
          </mxGeometry>
        </mxCell>
        <mxCell id="VcE4QbQk5p8lFnNBb0S_-18" style="edgeStyle=orthogonalEdgeStyle;shape=connector;rounded=0;orthogonalLoop=1;jettySize=auto;html=1;exitX=0.5;exitY=1;exitDx=0;exitDy=0;strokeColor=default;align=center;verticalAlign=middle;fontFamily=Helvetica;fontSize=11;fontColor=default;labelBackgroundColor=default;endArrow=oval;endFill=0;" edge="1" parent="1" source="VcE4QbQk5p8lFnNBb0S_-11">
          <mxGeometry relative="1" as="geometry">
            <mxPoint x="460" y="730" as="targetPoint" />
          </mxGeometry>
        </mxCell>
        <mxCell id="VcE4QbQk5p8lFnNBb0S_-11" value="Categoria" style="rounded=0;whiteSpace=wrap;html=1;fillColor=#dae8fc;strokeColor=#6c8ebf;" vertex="1" parent="1">
          <mxGeometry x="364" y="645" width="80" height="40" as="geometry" />
        </mxCell>
        <mxCell id="VcE4QbQk5p8lFnNBb0S_-15" style="edgeStyle=orthogonalEdgeStyle;rounded=0;orthogonalLoop=1;jettySize=auto;html=1;exitX=0.5;exitY=1;exitDx=0;exitDy=0;entryX=0.5;entryY=0;entryDx=0;entryDy=0;endArrow=none;endFill=0;" edge="1" parent="1" source="VcE4QbQk5p8lFnNBb0S_-12" target="VcE4QbQk5p8lFnNBb0S_-11">
          <mxGeometry relative="1" as="geometry" />
        </mxCell>
        <mxCell id="VcE4QbQk5p8lFnNBb0S_-12" value="appartenere" style="rhombus;whiteSpace=wrap;html=1;fillColor=#fff2cc;strokeColor=#d6b656;" vertex="1" parent="1">
          <mxGeometry x="364" y="515" width="80" height="80" as="geometry" />
        </mxCell>
        <mxCell id="VcE4QbQk5p8lFnNBb0S_-19" value="&lt;font style=&quot;font-size: 8px;&quot;&gt;id_atleta&lt;/font&gt;" style="text;html=1;align=left;verticalAlign=middle;whiteSpace=wrap;rounded=0;fontFamily=Helvetica;fontSize=11;fontColor=default;labelBackgroundColor=default;" vertex="1" parent="1">
          <mxGeometry x="324" y="740" width="40" height="10" as="geometry" />
        </mxCell>
        <mxCell id="VcE4QbQk5p8lFnNBb0S_-20" value="&lt;font style=&quot;font-size: 8px;&quot;&gt;codice&lt;/font&gt;" style="text;html=1;align=left;verticalAlign=middle;whiteSpace=wrap;rounded=0;fontFamily=Helvetica;fontSize=11;fontColor=default;labelBackgroundColor=default;" vertex="1" parent="1">
          <mxGeometry x="390" y="740" width="40" height="10" as="geometry" />
        </mxCell>
        <mxCell id="VcE4QbQk5p8lFnNBb0S_-21" value="&lt;font style=&quot;font-size: 8px;&quot;&gt;descrizione&lt;/font&gt;" style="text;html=1;align=left;verticalAlign=middle;whiteSpace=wrap;rounded=0;fontFamily=Helvetica;fontSize=11;fontColor=default;labelBackgroundColor=default;" vertex="1" parent="1">
          <mxGeometry x="444" y="740" width="40" height="10" as="geometry" />
        </mxCell>
        <mxCell id="VcE4QbQk5p8lFnNBb0S_-22" value="&lt;span style=&quot;font-size: 8px;&quot;&gt;(1,1)&lt;/span&gt;" style="text;html=1;align=left;verticalAlign=middle;whiteSpace=wrap;rounded=0;fontFamily=Helvetica;fontSize=11;fontColor=default;labelBackgroundColor=default;" vertex="1" parent="1">
          <mxGeometry x="690" y="380" width="40" height="10" as="geometry" />
        </mxCell>
        <mxCell id="VcE4QbQk5p8lFnNBb0S_-23" value="&lt;span style=&quot;font-size: 8px;&quot;&gt;(1,N)&lt;/span&gt;" style="text;html=1;align=left;verticalAlign=middle;whiteSpace=wrap;rounded=0;fontFamily=Helvetica;fontSize=11;fontColor=default;labelBackgroundColor=default;" vertex="1" parent="1">
          <mxGeometry x="450" y="180" width="40" height="10" as="geometry" />
        </mxCell>
        <mxCell id="VcE4QbQk5p8lFnNBb0S_-24" value="&lt;font style=&quot;font-size: 8px;&quot;&gt;(1,1)&lt;/font&gt;" style="text;html=1;align=left;verticalAlign=middle;whiteSpace=wrap;rounded=0;fontFamily=Helvetica;fontSize=11;fontColor=default;labelBackgroundColor=default;" vertex="1" parent="1">
          <mxGeometry x="450" y="960" width="40" height="10" as="geometry" />
        </mxCell>
        <mxCell id="VcE4QbQk5p8lFnNBb0S_-25" value="&lt;font style=&quot;font-size: 8px;&quot;&gt;(1,N)&lt;/font&gt;" style="text;html=1;align=left;verticalAlign=middle;whiteSpace=wrap;rounded=0;fontFamily=Helvetica;fontSize=11;fontColor=default;labelBackgroundColor=default;" vertex="1" parent="1">
          <mxGeometry x="680" y="650" width="40" height="10" as="geometry" />
        </mxCell>
        <mxCell id="VcE4QbQk5p8lFnNBb0S_-26" value="&lt;font style=&quot;font-size: 8px;&quot;&gt;(1,N)&lt;/font&gt;" style="text;html=1;align=left;verticalAlign=middle;whiteSpace=wrap;rounded=0;fontFamily=Helvetica;fontSize=11;fontColor=default;labelBackgroundColor=default;" vertex="1" parent="1">
          <mxGeometry x="44" y="470" width="40" height="10" as="geometry" />
        </mxCell>
        <mxCell id="VcE4QbQk5p8lFnNBb0S_-27" value="&lt;font style=&quot;font-size: 8px;&quot;&gt;(1,1)&lt;/font&gt;" style="text;html=1;align=left;verticalAlign=middle;whiteSpace=wrap;rounded=0;fontFamily=Helvetica;fontSize=11;fontColor=default;labelBackgroundColor=default;" vertex="1" parent="1">
          <mxGeometry x="330" y="960" width="40" height="10" as="geometry" />
        </mxCell>
        <mxCell id="VcE4QbQk5p8lFnNBb0S_-28" value="&lt;font style=&quot;font-size: 8px;&quot;&gt;(1,1)&lt;/font&gt;" style="text;html=1;align=left;verticalAlign=middle;whiteSpace=wrap;rounded=0;fontFamily=Helvetica;fontSize=11;fontColor=default;labelBackgroundColor=default;" vertex="1" parent="1">
          <mxGeometry x="124" y="490" width="40" height="10" as="geometry" />
        </mxCell>
        <mxCell id="VcE4QbQk5p8lFnNBb0S_-29" value="&lt;font style=&quot;font-size: 8px;&quot;&gt;(1,N)&lt;/font&gt;" style="text;html=1;align=left;verticalAlign=middle;whiteSpace=wrap;rounded=0;fontFamily=Helvetica;fontSize=11;fontColor=default;labelBackgroundColor=default;" vertex="1" parent="1">
          <mxGeometry x="404" y="630" width="40" height="10" as="geometry" />
        </mxCell>
        <mxCell id="VcE4QbQk5p8lFnNBb0S_-30" value="&lt;font style=&quot;font-size: 8px;&quot;&gt;(1,N)&lt;/font&gt;" style="text;html=1;align=left;verticalAlign=middle;whiteSpace=wrap;rounded=0;fontFamily=Helvetica;fontSize=11;fontColor=default;labelBackgroundColor=default;" vertex="1" parent="1">
          <mxGeometry x="90" y="420" width="40" height="10" as="geometry" />
        </mxCell>
        <mxCell id="VcE4QbQk5p8lFnNBb0S_-31" value="&lt;font style=&quot;font-size: 8px;&quot;&gt;(1,N)&lt;/font&gt;" style="text;html=1;align=left;verticalAlign=middle;whiteSpace=wrap;rounded=0;fontFamily=Helvetica;fontSize=11;fontColor=default;labelBackgroundColor=default;" vertex="1" parent="1">
          <mxGeometry x="310" y="180" width="40" height="10" as="geometry" />
        </mxCell>
        <mxCell id="VcE4QbQk5p8lFnNBb0S_-35" value="&lt;span style=&quot;font-size: 8px;&quot;&gt;data_inizio&lt;/span&gt;" style="text;html=1;align=left;verticalAlign=middle;whiteSpace=wrap;rounded=0;fontFamily=Helvetica;fontSize=11;fontColor=default;labelBackgroundColor=default;" vertex="1" parent="1">
          <mxGeometry x="330" y="270" width="50" height="10" as="geometry" />
        </mxCell>
        <mxCell id="VcE4QbQk5p8lFnNBb0S_-36" value="&lt;font style=&quot;font-size: 8px;&quot;&gt;data_fine&lt;/font&gt;" style="text;html=1;align=left;verticalAlign=middle;whiteSpace=wrap;rounded=0;fontFamily=Helvetica;fontSize=11;fontColor=default;labelBackgroundColor=default;" vertex="1" parent="1">
          <mxGeometry x="330" y="320" width="50" height="10" as="geometry" />
        </mxCell>
      </root>
    </mxGraphModel>
  </diagram>
</mxfile>
